<mxfile host="app.diagrams.net" modified="2021-02-06T10:42:09.572Z" agent="5.0 (Macintosh; Intel Mac OS X 10_15_6) AppleWebKit/537.36 (KHTML, like Gecko) Chrome/86.0.4240.193 Safari/537.36" etag="vYD9QSpDv2QvtsO_kb9N" version="14.2.9" type="github">
  <diagram id="aUqy4A0AGlaRL7fpwLO1" name="Page-1">
    <mxGraphModel dx="946" dy="536" grid="1" gridSize="10" guides="1" tooltips="1" connect="1" arrows="1" fold="1" page="1" pageScale="1" pageWidth="827" pageHeight="1169" math="0" shadow="0">
      <root>
        <mxCell id="0" />
        <mxCell id="1" parent="0" />
        <mxCell id="N8GtgA5SSH8Qtx9v491g-21" value="id列" style="text;html=1;strokeColor=none;fillColor=none;align=center;verticalAlign=middle;whiteSpace=wrap;rounded=0;" vertex="1" parent="1">
          <mxGeometry x="50" y="350" width="70" height="20" as="geometry" />
        </mxCell>
        <mxCell id="N8GtgA5SSH8Qtx9v491g-22" value="name列" style="text;html=1;strokeColor=none;fillColor=none;align=center;verticalAlign=middle;whiteSpace=wrap;rounded=0;" vertex="1" parent="1">
          <mxGeometry x="50" y="390" width="70" height="20" as="geometry" />
        </mxCell>
        <mxCell id="N8GtgA5SSH8Qtx9v491g-23" value="1" style="rounded=0;whiteSpace=wrap;html=1;fillColor=#ffffff;gradientColor=#ffffff;" vertex="1" parent="1">
          <mxGeometry x="130" y="340" width="60" height="40" as="geometry" />
        </mxCell>
        <mxCell id="N8GtgA5SSH8Qtx9v491g-24" value="&lt;span&gt;西施&lt;/span&gt;" style="rounded=0;whiteSpace=wrap;html=1;fillColor=#ffffff;gradientColor=#ffffff;" vertex="1" parent="1">
          <mxGeometry x="130" y="380" width="60" height="40" as="geometry" />
        </mxCell>
        <mxCell id="N8GtgA5SSH8Qtx9v491g-25" value="5" style="rounded=0;whiteSpace=wrap;html=1;fillColor=#ffffff;gradientColor=#ffffff;" vertex="1" parent="1">
          <mxGeometry x="190" y="340" width="60" height="40" as="geometry" />
        </mxCell>
        <mxCell id="N8GtgA5SSH8Qtx9v491g-26" value="&lt;span&gt;王昭君&lt;/span&gt;" style="rounded=0;whiteSpace=wrap;html=1;fillColor=#ffffff;gradientColor=#ffffff;" vertex="1" parent="1">
          <mxGeometry x="190" y="380" width="60" height="40" as="geometry" />
        </mxCell>
        <mxCell id="N8GtgA5SSH8Qtx9v491g-27" value="8" style="rounded=0;whiteSpace=wrap;html=1;fillColor=#ffe6cc;" vertex="1" parent="1">
          <mxGeometry x="250" y="340" width="60" height="40" as="geometry" />
        </mxCell>
        <mxCell id="N8GtgA5SSH8Qtx9v491g-28" value="&lt;span&gt;貂蝉&lt;/span&gt;" style="rounded=0;whiteSpace=wrap;html=1;fillColor=#ffe6cc;" vertex="1" parent="1">
          <mxGeometry x="250" y="380" width="60" height="40" as="geometry" />
        </mxCell>
        <mxCell id="N8GtgA5SSH8Qtx9v491g-29" value="10" style="rounded=0;whiteSpace=wrap;html=1;fillColor=#ffffff;gradientColor=#ffffff;" vertex="1" parent="1">
          <mxGeometry x="310" y="340" width="60" height="40" as="geometry" />
        </mxCell>
        <mxCell id="N8GtgA5SSH8Qtx9v491g-30" value="&lt;span&gt;杨玉环&lt;/span&gt;" style="rounded=0;whiteSpace=wrap;html=1;fillColor=#ffffff;gradientColor=#ffffff;" vertex="1" parent="1">
          <mxGeometry x="310" y="380" width="60" height="40" as="geometry" />
        </mxCell>
        <mxCell id="N8GtgA5SSH8Qtx9v491g-31" value="12" style="rounded=0;whiteSpace=wrap;html=1;fillColor=#ffffff;gradientColor=#ffffff;" vertex="1" parent="1">
          <mxGeometry x="370" y="340" width="60" height="40" as="geometry" />
        </mxCell>
        <mxCell id="N8GtgA5SSH8Qtx9v491g-32" value="&lt;span&gt;陈圆圆&lt;/span&gt;" style="rounded=0;whiteSpace=wrap;html=1;fillColor=#ffffff;gradientColor=#ffffff;" vertex="1" parent="1">
          <mxGeometry x="370" y="380" width="60" height="40" as="geometry" />
        </mxCell>
        <mxCell id="N8GtgA5SSH8Qtx9v491g-33" value="对id为8的记录加Record Lock" style="whiteSpace=wrap;html=1;shape=mxgraph.basic.rectCallout;dx=30;dy=15;boundedLbl=1;rounded=0;strokeColor=#000000;fillColor=none;gradientColor=none;" vertex="1" parent="1">
          <mxGeometry x="270" y="270" width="170" height="60" as="geometry" />
        </mxCell>
      </root>
    </mxGraphModel>
  </diagram>
</mxfile>
